<svg id="Layer_1" data-name="Layer 1" xmlns="http://www.w3.org/2000/svg" viewBox="0 0 288 130.9"><defs><style>.cls-1{fill:#afb3b8;}</style></defs><title>image</title><g id="Icon-Image"><path id="Fill-12" class="cls-1" d="M268.51,130.9H14.76C5.38,130.9,0,124.19,0,118.61v-107C0,6,2.38,0,11.76,0h263.8C284.94,0,288,3.92,288,9.51V115.37c0,8.23-2.67,15.53-16.5,15.53ZM13.59,5.57c-5.07,0-8.13,2.28-8.13,8V118.24a7.08,7.08,0,0,0,7.19,6.24H273.47c5.08,0,8.88-2.28,8.88-5.32V10.89c0-3-3.8-5.32-8.88-5.32H13.59Z"/><path id="Fill-13" class="cls-1" d="M220.25,58.3a19.62,19.62,0,0,1-19.67-19.67A19.67,19.67,0,1,1,220.25,58.3Zm0-35.15a15.12,15.12,0,1,0,15.12,15.12,15.12,15.12,0,0,0-15.12-15.12Z"/><polyline id="Fill-14" class="cls-1" points="137.69 129.11 55.08 51.5 1.68 101.33 1.43 88.34 55.08 38.63 151.14 129.33 137.69 129.11"/><polyline id="Fill-14-2" data-name="Fill-14" class="cls-1" points="246.87 129.11 162.62 51.5 108.16 101.33 107.91 88.34 162.62 38.63 260.58 129.33 246.87 129.11"/><polyline id="Fill-15" class="cls-1" points="284 105.09 250.73 81.19 225.07 100.14 218.26 92.63 250.73 69.03 288 96.21 283.27 104.57"/></g></svg>